M48
; DRILL file {KiCad (5.1.9)-1} date 05/21/21 21:01:22
; FORMAT={-:-/ absolute / metric / decimal}
; #@! TF.CreationDate,2021-05-21T21:01:22+03:00
; #@! TF.GenerationSoftware,Kicad,Pcbnew,(5.1.9)-1
FMAT,2
METRIC
T1C0.400
T2C1.000
%
G90
G05
T1
X81.407Y-97.282
X81.407Y-99.187
X82.867Y-109.982
X84.138Y-105.791
X85.407Y-104.902
X86.677Y-104.021
X87.947Y-109.982
X92.456Y-107.569
X92.456Y-122.682
X93.98Y-97.282
X93.98Y-99.187
X94.297Y-109.982
X94.5Y-122.5
X95.567Y-109.982
X96.837Y-105.791
X98.108Y-104.902
X98.362Y-119.38
X98.425Y-116.586
X99.38Y-104.018
X100.076Y-126.746
X100.647Y-109.982
X105.156Y-107.569
X105.664Y-113.284
X106.68Y-97.282
X106.68Y-99.187
X106.997Y-109.982
X108.267Y-109.982
X108.966Y-117.856
X109.537Y-109.982
X110.744Y-112.966
X110.744Y-117.856
X110.744Y-123.126
X110.744Y-125.476
X110.807Y-109.982
X112.014Y-112.966
X112.078Y-109.982
X113.347Y-109.982
X114.173Y-127.676
X114.554Y-112.966
X118.11Y-107.569
T2
X82.22Y-74.375
X82.22Y-89.615
X84.76Y-74.375
X84.76Y-89.615
X85.0Y-114.445
X85.0Y-118.445
X85.0Y-122.5
X85.0Y-126.5
X87.3Y-74.375
X87.3Y-89.615
X89.84Y-74.375
X89.84Y-89.615
X92.38Y-74.375
X92.38Y-89.615
X94.92Y-74.375
X94.92Y-89.615
X96.0Y-131.5
X97.46Y-74.375
X97.46Y-89.615
X100.0Y-74.375
X100.0Y-89.615
X100.0Y-131.5
X102.54Y-74.375
X102.54Y-89.615
X104.0Y-131.5
X105.08Y-74.375
X105.08Y-89.615
X107.62Y-74.375
X107.62Y-89.615
X110.16Y-74.375
X110.16Y-89.615
X112.7Y-74.375
X112.7Y-89.615
X115.24Y-74.375
X115.24Y-89.615
X117.094Y-113.728
X117.094Y-116.268
X117.094Y-118.808
X117.094Y-121.349
X117.094Y-123.888
X117.094Y-126.428
X117.78Y-74.375
X117.78Y-89.615
T0
M30
