%TF.GenerationSoftware,KiCad,Pcbnew,(5.1.9)-1*%
%TF.CreationDate,2021-05-21T21:01:08+03:00*%
%TF.ProjectId,valenok,76616c65-6e6f-46b2-9e6b-696361645f70,1*%
%TF.SameCoordinates,Original*%
%TF.FileFunction,Soldermask,Top*%
%TF.FilePolarity,Negative*%
%FSLAX46Y46*%
G04 Gerber Fmt 4.6, Leading zero omitted, Abs format (unit mm)*
G04 Created by KiCad (PCBNEW (5.1.9)-1) date 2021-05-21 21:01:08*
%MOMM*%
%LPD*%
G01*
G04 APERTURE LIST*
%ADD10O,1.600000X2.500000*%
%ADD11C,1.800000*%
%ADD12R,1.300000X1.500000*%
%ADD13R,1.500000X1.300000*%
%ADD14R,1.400000X1.000000*%
%ADD15R,1.000000X1.400000*%
%ADD16R,1.600000X1.200000*%
%ADD17R,0.600000X2.200000*%
%ADD18O,4.000000X2.400000*%
%ADD19O,2.400000X4.000000*%
G04 APERTURE END LIST*
D10*
%TO.C,DS3*%
X107619999Y-74374999D03*
X110159999Y-74374999D03*
X112699999Y-74374999D03*
X115239999Y-74374999D03*
X117779999Y-74374999D03*
X117779999Y-89614999D03*
X115239999Y-89614999D03*
X112699999Y-89614999D03*
X110159999Y-89614999D03*
X107619999Y-89614999D03*
%TD*%
D11*
%TO.C,X8*%
X117094000Y-113728500D03*
X117094000Y-116268500D03*
X117094000Y-118808500D03*
X117094000Y-121348500D03*
X117094000Y-123888500D03*
G36*
G01*
X117544000Y-127328500D02*
X116644000Y-127328500D01*
G75*
G02*
X116194000Y-126878500I0J450000D01*
G01*
X116194000Y-125978500D01*
G75*
G02*
X116644000Y-125528500I450000J0D01*
G01*
X117544000Y-125528500D01*
G75*
G02*
X117994000Y-125978500I0J-450000D01*
G01*
X117994000Y-126878500D01*
G75*
G02*
X117544000Y-127328500I-450000J0D01*
G01*
G37*
%TD*%
D12*
%TO.C,C1*%
X103886000Y-128524000D03*
X105786000Y-128524000D03*
%TD*%
D13*
%TO.C,C2*%
X107569000Y-113289000D03*
X107569000Y-115189000D03*
%TD*%
D12*
%TO.C,C3*%
X92578000Y-109982000D03*
X90678000Y-109982000D03*
%TD*%
%TO.C,C4*%
X103378000Y-109982000D03*
X105278000Y-109982000D03*
%TD*%
%TO.C,C5*%
X117978000Y-109982000D03*
X116078000Y-109982000D03*
%TD*%
D10*
%TO.C,DS1*%
X82219999Y-89614999D03*
X84759999Y-89614999D03*
X87299999Y-89614999D03*
X89839999Y-89614999D03*
X92379999Y-89614999D03*
X92379999Y-74374999D03*
X89839999Y-74374999D03*
X87299999Y-74374999D03*
X84759999Y-74374999D03*
X82219999Y-74374999D03*
%TD*%
%TO.C,DS2*%
X94919999Y-89614999D03*
X97459999Y-89614999D03*
X99999999Y-89614999D03*
X102539999Y-89614999D03*
X105079999Y-89614999D03*
X105079999Y-74374999D03*
X102539999Y-74374999D03*
X99999999Y-74374999D03*
X97459999Y-74374999D03*
X94919999Y-74374999D03*
%TD*%
D14*
%TO.C,Q1*%
X93132000Y-125542000D03*
X90932000Y-126492000D03*
X90932000Y-124592000D03*
%TD*%
%TO.C,Q2*%
X90932000Y-122682000D03*
X90932000Y-120782000D03*
X88732000Y-121732000D03*
%TD*%
D15*
%TO.C,Q3*%
X113914000Y-125476000D03*
X112014000Y-125476000D03*
X112964000Y-127676000D03*
%TD*%
D13*
%TO.C,R1*%
X88646000Y-126492000D03*
X88646000Y-124592000D03*
%TD*%
D12*
%TO.C,R2*%
X100076000Y-128524000D03*
X101976000Y-128524000D03*
%TD*%
%TO.C,R3*%
X112014000Y-123190000D03*
X113914000Y-123190000D03*
%TD*%
%TO.C,R4*%
X107574000Y-123190000D03*
X109474000Y-123190000D03*
%TD*%
D13*
%TO.C,R5*%
X87934999Y-95324999D03*
X87934999Y-93424999D03*
%TD*%
%TO.C,R6*%
X90474999Y-93424999D03*
X90474999Y-95324999D03*
%TD*%
%TO.C,R7*%
X89204999Y-97234999D03*
X89204999Y-99134999D03*
%TD*%
%TO.C,R8*%
X85394999Y-95324999D03*
X85394999Y-93424999D03*
%TD*%
%TO.C,R9*%
X82854999Y-93424999D03*
X82854999Y-95324999D03*
%TD*%
%TO.C,R10*%
X86664999Y-99134999D03*
X86664999Y-97234999D03*
%TD*%
%TO.C,R11*%
X84124999Y-97234999D03*
X84124999Y-99134999D03*
%TD*%
%TO.C,R12*%
X91744999Y-99134999D03*
X91744999Y-97234999D03*
%TD*%
%TO.C,R13*%
X100634999Y-95324999D03*
X100634999Y-93424999D03*
%TD*%
%TO.C,R14*%
X103174999Y-95324999D03*
X103174999Y-93424999D03*
%TD*%
%TO.C,R15*%
X101904999Y-97234999D03*
X101904999Y-99134999D03*
%TD*%
%TO.C,R16*%
X98094999Y-95335000D03*
X98094999Y-93435000D03*
%TD*%
%TO.C,R17*%
X95554999Y-93424999D03*
X95554999Y-95324999D03*
%TD*%
%TO.C,R18*%
X99364999Y-99134999D03*
X99364999Y-97234999D03*
%TD*%
%TO.C,R19*%
X96824999Y-97234999D03*
X96824999Y-99134999D03*
%TD*%
%TO.C,R20*%
X104444999Y-99134999D03*
X104444999Y-97234999D03*
%TD*%
%TO.C,R21*%
X113334999Y-93424999D03*
X113334999Y-95324999D03*
%TD*%
%TO.C,R22*%
X115874999Y-95324999D03*
X115874999Y-93424999D03*
%TD*%
%TO.C,R23*%
X114604999Y-97234999D03*
X114604999Y-99134999D03*
%TD*%
%TO.C,R24*%
X110794999Y-95324999D03*
X110794999Y-93424999D03*
%TD*%
%TO.C,R25*%
X108254999Y-93424999D03*
X108254999Y-95324999D03*
%TD*%
%TO.C,R26*%
X112064999Y-99134999D03*
X112064999Y-97234999D03*
%TD*%
%TO.C,R27*%
X109524999Y-97234999D03*
X109524999Y-99134999D03*
%TD*%
%TO.C,R28*%
X117144999Y-97234999D03*
X117144999Y-99134999D03*
%TD*%
D12*
%TO.C,R29*%
X109474000Y-125476000D03*
X107574000Y-125476000D03*
%TD*%
D16*
%TO.C,SW1*%
X96000000Y-115750000D03*
X103900000Y-115750000D03*
X96000000Y-120250000D03*
X103900000Y-120250000D03*
%TD*%
D17*
%TO.C,U1*%
X109474000Y-120396000D03*
X110744000Y-120396000D03*
X112014000Y-120396000D03*
X113284000Y-120396000D03*
X113284000Y-115196000D03*
X112014000Y-115196000D03*
X110744000Y-115196000D03*
X109474000Y-115196000D03*
%TD*%
%TO.C,U2*%
X86664999Y-102314999D03*
X87934999Y-102314999D03*
X89204999Y-102314999D03*
X90474999Y-102314999D03*
X85394999Y-102314999D03*
X84124999Y-102314999D03*
X82854999Y-102314999D03*
X81584999Y-102314999D03*
X81584999Y-107514999D03*
X82854999Y-107514999D03*
X84124999Y-107514999D03*
X85394999Y-107514999D03*
X86664999Y-107514999D03*
X87934999Y-107514999D03*
X89204999Y-107514999D03*
X90474999Y-107514999D03*
%TD*%
%TO.C,U3*%
X99364999Y-102314999D03*
X100634999Y-102314999D03*
X101904999Y-102314999D03*
X103174999Y-102314999D03*
X98094999Y-102314999D03*
X96824999Y-102314999D03*
X95554999Y-102314999D03*
X94284999Y-102314999D03*
X94284999Y-107514999D03*
X95554999Y-107514999D03*
X96824999Y-107514999D03*
X98094999Y-107514999D03*
X99364999Y-107514999D03*
X100634999Y-107514999D03*
X101904999Y-107514999D03*
X103174999Y-107514999D03*
%TD*%
%TO.C,U4*%
X115874999Y-107514999D03*
X114604999Y-107514999D03*
X113334999Y-107514999D03*
X112064999Y-107514999D03*
X110794999Y-107514999D03*
X109524999Y-107514999D03*
X108254999Y-107514999D03*
X106984999Y-107514999D03*
X106984999Y-102314999D03*
X108254999Y-102314999D03*
X109524999Y-102314999D03*
X110794999Y-102314999D03*
X115874999Y-102314999D03*
X114604999Y-102314999D03*
X113334999Y-102314999D03*
X112064999Y-102314999D03*
%TD*%
D18*
%TO.C,X1*%
X84000000Y-126500000D03*
%TD*%
%TO.C,X2*%
X84000000Y-122500000D03*
%TD*%
%TO.C,X3*%
X84000000Y-118445000D03*
%TD*%
%TO.C,X4*%
X84000000Y-114445000D03*
%TD*%
D19*
%TO.C,X5*%
X104000000Y-132500000D03*
%TD*%
%TO.C,X6*%
X100000000Y-132500000D03*
%TD*%
%TO.C,X7*%
X96000000Y-132500000D03*
%TD*%
M02*
