%TF.GenerationSoftware,KiCad,Pcbnew,(5.1.9)-1*%
%TF.CreationDate,2021-05-21T21:01:08+03:00*%
%TF.ProjectId,valenok,76616c65-6e6f-46b2-9e6b-696361645f70,1*%
%TF.SameCoordinates,Original*%
%TF.FileFunction,Profile,NP*%
%FSLAX46Y46*%
G04 Gerber Fmt 4.6, Leading zero omitted, Abs format (unit mm)*
G04 Created by KiCad (PCBNEW (5.1.9)-1) date 2021-05-21 21:01:08*
%MOMM*%
%LPD*%
G01*
G04 APERTURE LIST*
%TA.AperFunction,Profile*%
%ADD10C,0.200000*%
%TD*%
G04 APERTURE END LIST*
D10*
X91750000Y-67500000D02*
G75*
G03*
X91750000Y-67500000I-1750000J0D01*
G01*
X111750000Y-67500000D02*
G75*
G03*
X111750000Y-67500000I-1750000J0D01*
G01*
X111750000Y-132500000D02*
G75*
G03*
X111750000Y-132500000I-1750000J0D01*
G01*
X117500000Y-70000000D02*
X116500000Y-70000000D01*
X116500000Y-70000000D02*
G75*
G02*
X114000000Y-67500000I0J2500000D01*
G01*
X110000000Y-63500000D02*
G75*
G02*
X114000000Y-67500000I0J-4000000D01*
G01*
X82500000Y-70000000D02*
X83500000Y-70000000D01*
X110000000Y-63500000D02*
X100000000Y-63500000D01*
X86000000Y-67500000D02*
G75*
G02*
X83500000Y-70000000I-2500000J0D01*
G01*
X90000000Y-63500000D02*
X100000000Y-63500000D01*
X86000000Y-67500000D02*
G75*
G02*
X90000000Y-63500000I4000000J0D01*
G01*
X117500000Y-130000000D02*
X116500000Y-130000000D01*
X114000000Y-132500000D02*
G75*
G02*
X116500000Y-130000000I2500000J0D01*
G01*
X114000000Y-132500000D02*
G75*
G02*
X110000000Y-136500000I-4000000J0D01*
G01*
X82500000Y-130000000D02*
X83500000Y-130000000D01*
X120000000Y-72500000D02*
X120000000Y-100000000D01*
X117500000Y-70000000D02*
G75*
G02*
X120000000Y-72500000I0J-2500000D01*
G01*
X80000000Y-72500000D02*
X80000000Y-100000000D01*
X80000000Y-72500000D02*
G75*
G02*
X82500000Y-70000000I2500000J0D01*
G01*
X120000000Y-127500000D02*
X120000000Y-100000000D01*
X120000000Y-127500000D02*
G75*
G02*
X117500000Y-130000000I-2500000J0D01*
G01*
X110000000Y-136500000D02*
X100000000Y-136500000D01*
X80000000Y-127500000D02*
X80000000Y-100000000D01*
X82500000Y-130000000D02*
G75*
G02*
X80000000Y-127500000I0J2500000D01*
G01*
X83500000Y-130000000D02*
G75*
G02*
X86000000Y-132500000I0J-2500000D01*
G01*
X90000000Y-136500000D02*
X100000000Y-136500000D01*
X90000000Y-136500000D02*
G75*
G02*
X86000000Y-132500000I0J4000000D01*
G01*
X91750000Y-132500000D02*
G75*
G03*
X91750000Y-132500000I-1750000J0D01*
G01*
M02*
